<?xml version="1.0" encoding="UTF-8"?>
<svg width="64px" height="64px" viewBox="0 0 64 64" version="1.1" xmlns="http://www.w3.org/2000/svg" xmlns:xlink="http://www.w3.org/1999/xlink">
    <title>meter_water</title>
    <g id="meter_water" stroke="none" stroke-width="1" fill="none" fill-rule="evenodd">
        <path d="M32,14 C41.9411255,14 50,22.0588745 50,32 C50,41.9411255 41.9411255,50 32,50 C22.0588745,50 14,41.9411255 14,32 C14,22.0588745 22.0588745,14 32,14 Z M32,18 C24.2680135,18 18,24.2680135 18,32 C18,39.7319865 24.2680135,46 32,46 C39.7319865,46 46,39.7319865 46,32 C46,24.2680135 39.7319865,18 32,18 Z M8.92963248,23 C9.59833886,23 10.2228015,23.3342023 10.5937331,23.8905996 L11.7031335,25.5547002 C11.8885992,25.8328989 12.2008306,26 12.5351838,26 L13.4403837,26.0003544 C12.8298404,27.8904395 12.5,29.9067005 12.5,32 C12.5,34.093669 12.8299569,36.1102725 13.4407071,38.0006467 L12.5351838,38 C12.2008306,38 11.8885992,38.1671011 11.7031335,38.4452998 L10.5937331,40.1094004 C10.2228015,40.6657977 9.59833886,41 8.92963248,41 L7,41 C6.44771525,41 6,40.5522847 6,40 L6,24 C6,23.4477153 6.44771525,23 7,23 L8.92963248,23 Z M57,23 C57.5522847,23 58,23.4477153 58,24 L58,40 C58,40.5522847 57.5522847,41 57,41 L55.0703675,41 C54.4016611,41 53.7771985,40.6657977 53.4062669,40.1094004 L52.2968665,38.4452998 C52.1114008,38.1671011 51.7991694,38 51.4648162,38 L50.5592929,38.0006467 C51.1700431,36.1102725 51.5,34.093669 51.5,32 C51.5,29.9067005 51.1701596,27.8904395 50.5596163,26.0003544 L51.4648162,26 C51.7991694,26 52.1114008,25.8328989 52.2968665,25.5547002 L53.4062669,23.8905996 C53.7771985,23.3342023 54.4016611,23 55.0703675,23 L57,23 Z M32,23 C33.1960614,23 38,29.0208333 38,33.9791667 C38,37.3043811 35.3137085,40 32,40 C28.6862915,40 26,37.3043811 26,33.9791667 C26,29.0208333 30.8039386,23 32,23 Z M31.5497066,27.1442802 C30.9997896,27.6998244 30.4498948,28.5608292 29.9,29.7272727 C29.5212236,30.5307377 29.2620069,31.2617424 29.1223497,31.9202866 L29.0698248,32.1980849 C29.0076932,32.5737353 29.2618505,32.9286277 29.6375008,32.9907592 C29.6746849,32.9969094 29.7123107,33 29.75,33 C30.1586628,33 30.4968673,32.6822036 30.5222697,32.2743311 C30.5845107,31.2751558 30.7770834,30.335227 31.1,29.4545455 L31.3893766,28.6834562 C31.5390683,28.2953391 31.6703048,27.9743316 31.7830861,27.7204338 L31.9095574,27.4479652 C31.9612323,27.3424141 31.9369589,27.2154172 31.85,27.1363636 C31.7639442,27.0581311 31.6315208,27.0616222 31.5497066,27.1442802 Z" id="Shape" fill="#000000"></path>
    </g>
</svg>