<?xml version="1.0" encoding="UTF-8"?>
<svg width="64px" height="64px" viewBox="0 0 64 64" version="1.1" xmlns="http://www.w3.org/2000/svg" xmlns:xlink="http://www.w3.org/1999/xlink">
    <title>measure_weight</title>
    <g id="measure_weight" stroke="none" stroke-width="1" fill="none" fill-rule="evenodd">
        <path d="M32,8 C35.8659932,8 39,11.1340068 39,15 C39,18.1277578 36.9486301,20.7763925 34.1179068,21.6738876 C34.3930879,22.4470057 35.1319646,23 36,23 L42.8506389,23 C45.6220431,23 48.0328484,24.8981241 48.6831322,27.5921568 L53.7520977,48.5921568 C54.529628,51.8133539 52.5486447,55.0549629 49.3274476,55.8324933 C48.8664358,55.943772 48.3938564,56 47.9196044,56 L16.0803956,56 C12.7666871,56 10.0803956,53.3137085 10.0803956,50 C10.0803956,49.5257481 10.1366236,49.0531686 10.2479023,48.5921568 L15.3168678,27.5921568 C15.9671516,24.8981241 18.3779569,23 21.1493611,23 L28,23 C28.8680354,23 29.6069121,22.4470057 29.8835552,21.6740918 C27.0509657,20.7758705 25,18.1274496 25,15 C25,11.1340068 28.1340068,8 32,8 Z M42.8506389,27 L21.1493611,27 C20.2255597,27 19.4219579,27.632708 19.2051967,28.5307189 L14.1362311,49.5307189 C14.0991382,49.6843895 14.0803956,49.841916 14.0803956,50 C14.0803956,51.1045695 14.9758261,52 16.0803956,52 L47.9196044,52 C48.0776884,52 48.2352149,51.9812573 48.3888855,51.9441644 C49.4626179,51.6849876 50.1229456,50.6044513 49.8637689,49.5307189 L44.7948033,28.5307189 C44.5780421,27.632708 43.7744403,27 42.8506389,27 Z M32,12 C30.3431458,12 29,13.3431458 29,15 C29,16.6568542 30.3431458,18 32,18 C33.6568542,18 35,16.6568542 35,15 C35,13.3431458 33.6568542,12 32,12 Z" id="Shape" fill="#000000" fill-rule="nonzero"></path>
    </g>
</svg>