<?xml version="1.0" encoding="UTF-8"?>
<svg width="64px" height="64px" viewBox="0 0 64 64" version="1.1" xmlns="http://www.w3.org/2000/svg" xmlns:xlink="http://www.w3.org/1999/xlink">
    <title>meter_gas</title>
    <g id="meter_gas" stroke="none" stroke-width="1" fill="none" fill-rule="evenodd">
        <path d="M19,8 C22.2383969,8 24.8775718,10.5655749 24.9958615,13.7750617 L25,14 L25,15.4648162 C25,15.7991694 25.1671011,16.1114008 25.4452998,16.2968665 L27.1094004,17.4062669 C27.6462456,17.7641637 27.9762375,18.3580863 27.9987668,19.0000443 L36.003,19 L36.0068977,18.9042338 C36.0572434,18.2993447 36.3805687,17.7462875 36.8905996,17.4062669 L38.5547002,16.2968665 C38.8328989,16.1114008 39,15.7991694 39,15.4648162 L39,14 L39.0041385,13.7750617 C39.1224282,10.5655749 41.7616031,8 45,8 L54,8 C55.1045695,8 56,8.8954305 56,10 C56,11.1045695 55.1045695,12 54,12 L45,12 C43.8954305,12 43,12.8954305 43,14 L43,15.4648162 C43,15.7991694 43.1671011,16.1114008 43.4452998,16.2968665 L45.1094004,17.4062669 C45.6462456,17.7641637 45.9762375,18.3580863 45.9987668,19.0000443 C49.3137085,19 52,21.6862915 52,25 L52,35 C53.1045695,35 54,35.8954305 54,37 C54,38.1045695 53.1045695,39 52,39 L52,46 C52,51.5228475 47.5228475,56 42,56 L22,56 C16.4771525,56 12,51.5228475 12,46 L12,39 C10.8954305,39 10,38.1045695 10,37 C10,35.8954305 10.8954305,35 12,35 L12,25 C12,21.6862915 14.6862915,19 18,19 L18.003,19 L18.0068977,18.9042338 C18.0572434,18.2993447 18.3805687,17.7462875 18.8905996,17.4062669 L20.5547002,16.2968665 C20.8328989,16.1114008 21,15.7991694 21,15.4648162 L21,14 C21,12.8954305 20.1045695,12 19,12 L10,12 C8.8954305,12 8,11.1045695 8,10 C8,8.8954305 8.8954305,8 10,8 L19,8 Z M46,23 L18,23 C16.8954305,23 16,23.8954305 16,25 L16,46 C16,49.3137085 18.6862915,52 22,52 L42,52 C45.3137085,52 48,49.3137085 48,46 L48,25 C48,23.8954305 47.1045695,23 46,23 Z M30.1578947,28 L30.2180656,28.0012496 C31.6924491,28.0620567 33.9012004,30.3416974 34.2105263,34.7488216 C35.044064,34.3246845 35.5430396,33.4480352 35.3157895,32.1242799 C35.2979364,32.0202837 35.318321,31.9132382 35.3730559,31.8235581 C35.4961157,31.6219311 35.7564869,31.5600036 35.9546111,31.6852391 L36.0526316,31.7493453 C37.2972196,32.5909269 39,34.894959 39,39.248036 C39,42.1431619 37.4652732,44.6709583 35.1810496,45.9058874 L35.0454407,45.9770872 C34.9343146,46.0319973 34.8004891,45.9848326 34.7465329,45.8717419 C34.7129649,45.8013842 34.7175646,45.7193687 34.7566333,45.6540269 L34.7790229,45.6228766 C35.3427987,44.9636624 35.6842105,43.9870662 35.6842105,42.6224468 C35.6842105,41.5209545 35.3026375,40.6136218 34.5394914,39.9004486 C34.390005,39.7599657 34.1569511,39.7702109 34.019417,39.9228145 C34.0068507,39.9367577 33.9953396,39.9516488 33.9849821,39.9673602 L32.6749659,41.9670329 C32.5620992,42.1393261 32.3333579,42.1858832 32.1640578,42.071021 C32.0615636,42.0014835 32,41.8844172 32,41.7590567 L32,37.626737 C31.9996801,37.4196667 31.8344735,37.2520665 31.6310005,37.2523917 C31.565688,37.252496 31.5015767,37.2702678 31.4452345,37.3038864 C29.3589165,38.5458814 28.3157895,40.3187719 28.3157895,42.6224468 C28.3157895,43.9362107 28.6322286,44.8903337 29.1588789,45.5478243 L29.2230791,45.6253034 C29.3036334,45.7192854 29.2940716,45.8619295 29.2017222,45.9439079 C29.1378365,46.0006192 29.0477817,46.0153291 28.9696654,45.9818131 C28.9428269,45.9702984 28.915381,45.9571636 28.8873277,45.9424091 C26.5654077,44.7212054 25,42.1719571 25,39.248036 C25,36.6890449 25.9134877,35.2925092 26.9126421,34.0078154 L27.5097071,33.2498115 L27.6688604,33.0439793 C28.4864171,31.97464 29.2205411,30.8015415 29.4049394,28.9328968 L29.4241304,28.7041431 C29.4469622,28.3087468 29.7686971,28 30.1578947,28 Z" id="Combined-Shape" fill="#000000" fill-rule="nonzero"></path>
    </g>
</svg>