<?xml version="1.0" encoding="UTF-8"?><svg id="Layer_1" xmlns="http://www.w3.org/2000/svg" viewBox="0 0 800 800"><path d="M449.7,72.97c-13.8,0-25,11.2-25,25s11.2,25,25,25c176.9,0,300.3,129.28,300.3,306.18s-143.92,320.85-320.85,320.85S122.95,622.18,122.95,445.28c0-13.8-11.2-25-25-25s-25,11.2-25,25c0,204.5,151.72,354.72,356.2,354.72s370.85-166.35,370.85-370.85S654.15,72.98,449.7,72.98h0ZM375.2,350.2V25c0-13.8-11.2-25-25-25C155.48,0,0,155.47,0,350.2c0,13.8,11.2,25,25,25h325.2c13.8,0,25-11.2,25-25ZM325.2,325.2H51.03C63.1,177.93,177.95,63.1,325.2,51.03v274.18Z"/><path d="M277.67,496.92c0,46.39,32.78,86.32,78.28,95.35,1.27-13.93,4.84-27.54,10.58-40.3-17.03-5.75-27.97-18.82-30.54-37.36h-9.72v-8.28h9.06v-8.44c-.01-.91.01-1.78.08-2.62h-9.14v-8.3h9.93c4.37-24.26,23.37-38.65,51.9-38.65,6.14,0,11.47.6,15.92,1.65v14.25c-5.2-1.15-10.52-1.68-15.84-1.59-17.86,0-29.9,9.06-33.71,24.34h37.27v8.3h-38.49c-.05.91-.07,1.86-.06,2.86v8.2h38.55v8.3h-37.67c2.29,11.7,9.1,20.02,19.54,23.89,20.76-34.38,56.62-56.84,96.61-60.52-10.63-52.64-61.92-86.7-114.56-76.07-45.24,9.14-77.83,48.82-77.99,94.98M588.71,603.84c0,59.05-47.87,106.92-106.92,106.92s-106.92-47.87-106.92-106.92,47.87-106.92,106.92-106.92,106.92,47.87,106.92,106.92M438.05,629.54c1.34,16.23,14.5,28.87,38.18,30.36v11.97h10.5v-12.05c24.47-1.67,38.8-14.39,38.8-32.85,0-16.82-10.94-25.47-30.52-29.94l-8.28-1.94v-32.58c10.5,1.17,17.18,6.75,18.78,14.48h18.43c-1.36-15.63-15.14-27.86-37.21-29.2v-11.99h-10.5v12.23c-20.92,2-35.15,14.23-35.15,31.53,0,15.3,10.58,25.04,28.19,29.02l6.96,1.65v34.6c-10.77-1.56-17.88-7.31-19.5-15.3h-18.68ZM476.15,592.7c-10.34-2.33-15.94-7.08-15.94-14.23,0-7.97,6.05-13.98,16.02-15.73v29.94h-.1l.02.02ZM488.24,613c12.54,2.82,18.33,7.39,18.33,15.47,0,9.21-7.19,15.55-19.83,16.72v-32.54l1.5.35Z"/></svg>